<?xml version="1.0" encoding="utf-8"?>
<?xml-stylesheet href="../css/style.css" type="text/css"?>
<!-- Generator: Adobe Illustrator 16.0.3, SVG Export Plug-In . SVG Version: 6.00 Build 0)  -->
<!DOCTYPE svg PUBLIC "-//W3C//DTD SVG 1.1//EN" "http://www.w3.org/Graphics/SVG/1.1/DTD/svg11.dtd">
<svg version="1.1" xmlns="http://www.w3.org/2000/svg" xmlns:xlink="http://www.w3.org/1999/xlink" x="0px" y="0px"  viewBox="0 0 960 560" enable-background="new 0 0 960 560" xml:space="preserve">
<g id="Capa_1" display="none">
</g>
<g id="Capa_2">
	<g >
		<path  class="txt" d="M137.264,177.332l-0.773,2.672l-6.258,1.652l-5.695,36.035h15.926l4.852-8.719l2.953,0.492l-2.074,11.602h-35.121
			l0.703-2.602l6.152-1.652l5.52-35.051l-6.398-1.758l0.879-2.672H137.264z"/>
		<path class="txt" d="M170.592,213.753l2.426-16.91c0.047-0.375,0.07-0.621,0.07-0.738c0-0.891-0.276-1.488-0.826-1.793
			c-0.551-0.304-1.342-0.457-2.373-0.457l-1.477,0.035l0.316-2.813c1.594-0.773,3.387-1.16,5.379-1.16
			c1.758,0,2.976,0.346,3.656,1.037c0.68,0.691,1.02,1.764,1.02,3.217c0,0.422-0.07,1.266-0.211,2.531l-2.496,18.281
			c-0.047,0.329-0.07,0.563-0.07,0.703c0,0.656,0.17,1.137,0.51,1.441c0.339,0.305,0.838,0.504,1.494,0.598l2.32,0.422l-0.633,2.426
			c-0.914,0.329-1.788,0.598-2.619,0.809c-0.832,0.211-1.682,0.316-2.549,0.316c-2.742,0-4.113-1.242-4.113-3.727
			c0-0.68,0.082-1.383,0.246-2.109h-0.422c-1.195,1.594-2.678,2.994-4.447,4.201c-1.77,1.207-3.616,1.811-5.537,1.811
			c-1.969,0-3.44-0.533-4.412-1.6c-0.973-1.066-1.459-2.725-1.459-4.975c0-0.914,0.093-2.004,0.281-3.27l2.18-15.188
			c0.047-0.375,0.07-0.621,0.07-0.738c0-0.891-0.276-1.488-0.826-1.793c-0.551-0.304-1.342-0.457-2.373-0.457l-1.477,0.035
			l0.316-2.813c1.594-0.773,3.387-1.16,5.379-1.16c1.734,0,2.953,0.34,3.656,1.02c0.703,0.68,1.055,1.723,1.055,3.129
			c0,0.844-0.083,1.723-0.246,2.637l-1.863,12.234c-0.188,1.243-0.281,2.297-0.281,3.164c0,1.5,0.293,2.637,0.879,3.41
			c0.585,0.773,1.547,1.16,2.883,1.16c1.453,0,2.684-0.269,3.691-0.809C168.716,215.324,169.678,214.621,170.592,213.753z"/>
		<path class="txt" d="M195.025,217.339c2.227,0,4.723-0.855,7.488-2.566l0.844,2.145c-1.266,1.43-2.906,2.619-4.922,3.568
			c-2.016,0.949-3.985,1.424-5.906,1.424c-2.133,0-3.996-0.434-5.59-1.301c-1.594-0.867-2.836-2.174-3.727-3.92
			c-0.891-1.746-1.336-3.896-1.336-6.451c0-3.797,0.838-7.254,2.514-10.371c1.675-3.117,3.844-5.566,6.504-7.348
			c2.66-1.781,5.396-2.672,8.209-2.672c2.039,0,3.639,0.498,4.799,1.494c1.16,0.997,1.74,2.338,1.74,4.025
			c0,1.055-0.434,1.898-1.301,2.531c-0.867,0.633-1.946,1.008-3.234,1.125c-0.445-1.336-0.838-2.373-1.178-3.111
			c-0.34-0.738-0.809-1.365-1.406-1.881c-0.598-0.515-1.377-0.773-2.338-0.773c-1.852,0-3.398,0.756-4.641,2.268
			c-1.243,1.512-2.15,3.381-2.725,5.607c-0.575,2.227-0.861,4.418-0.861,6.574c0,3.234,0.574,5.648,1.723,7.242
			C190.83,216.543,192.611,217.339,195.025,217.339z"/>
		<path class="txt" d="M229.232,207.777c-0.516,3.422-0.773,5.743-0.773,6.961c0,1.032,0.135,1.758,0.404,2.18
			c0.269,0.422,0.721,0.68,1.354,0.773l2.672,0.422l-0.633,2.426c-2.016,0.75-3.785,1.125-5.309,1.125
			c-1.383,0-2.496-0.352-3.34-1.055s-1.266-1.64-1.266-2.813c0-0.422,0.07-0.879,0.211-1.371h-0.422
			c-0.844,1.547-2.016,2.83-3.516,3.85c-1.5,1.02-3.094,1.529-4.781,1.529c-1.43,0-2.678-0.417-3.744-1.248
			c-1.067-0.832-1.887-2.033-2.461-3.604c-0.575-1.57-0.861-3.41-0.861-5.52c0-4.359,0.919-8.168,2.76-11.426
			c1.84-3.257,4.148-5.748,6.926-7.471s5.525-2.584,8.244-2.584c3.727,0,6.082,0.621,7.066,1.863L229.232,207.777z M222.729,214
			l3.023-19.16c-0.891-0.82-2.285-1.23-4.184-1.23c-1.781,0-3.37,0.809-4.764,2.426c-1.395,1.617-2.473,3.68-3.234,6.188
			c-0.762,2.508-1.143,5.04-1.143,7.594c0,2.579,0.357,4.477,1.072,5.695c0.715,1.219,1.775,1.828,3.182,1.828
			c1.218,0,2.291-0.287,3.217-0.861C220.824,215.904,221.767,215.078,222.729,214z"/>
		<path class="txt" d="M249.482,189.355c2.297,0,4.16,0.439,5.59,1.318c1.429,0.879,2.145,2.186,2.145,3.92c0,1.219-0.399,2.192-1.195,2.918
			c-0.797,0.727-1.911,1.148-3.34,1.266c-0.329-1.64-0.698-2.941-1.107-3.902c-0.41-0.961-0.92-1.675-1.529-2.145
			c-0.61-0.469-1.395-0.703-2.355-0.703c-1.219,0-2.245,0.387-3.076,1.16c-0.832,0.773-1.248,1.898-1.248,3.375
			c0,0.914,0.251,1.77,0.756,2.566c0.504,0.797,1.125,1.518,1.863,2.162c0.738,0.645,1.763,1.459,3.076,2.443
			c1.5,1.102,2.719,2.074,3.656,2.918c0.937,0.844,1.728,1.828,2.373,2.953c0.645,1.125,0.967,2.368,0.967,3.727
			c0,1.617-0.568,3.117-1.705,4.5c-1.137,1.383-2.584,2.473-4.342,3.27s-3.504,1.195-5.238,1.195c-1.946,0-3.627-0.293-5.045-0.879
			c-1.418-0.585-2.496-1.354-3.234-2.303s-1.107-1.963-1.107-3.041c0-1.055,0.404-1.969,1.213-2.742s1.928-1.218,3.357-1.336
			c0.352,1.875,0.791,3.328,1.318,4.359c0.527,1.032,1.201,1.758,2.021,2.18c0.82,0.422,1.875,0.633,3.164,0.633
			c1.266,0,2.285-0.398,3.059-1.195c0.773-0.796,1.16-1.746,1.16-2.848c0-0.844-0.234-1.629-0.703-2.355
			c-0.469-0.726-1.049-1.376-1.74-1.951c-0.691-0.574-1.647-1.295-2.865-2.162c-1.524-1.078-2.754-2.033-3.691-2.865
			c-0.938-0.832-1.74-1.833-2.408-3.006c-0.668-1.172-1.002-2.508-1.002-4.008c0-1.57,0.504-3.082,1.512-4.535
			c1.007-1.453,2.373-2.631,4.096-3.533C245.598,189.807,247.466,189.355,249.482,189.355z"/>
		<path class="txt" d="M281.439,200.851c0,3.493,0.603,6.475,1.811,8.947c1.207,2.473,2.835,4.348,4.887,5.625
			c2.051,1.278,4.342,1.916,6.873,1.916c2.32,0,4.488-0.328,6.504-0.984c2.016-0.656,4.055-1.898,6.117-3.727l1.512,1.934
			c-4.407,4.922-10.336,7.383-17.789,7.383c-3.211,0-6.176-0.821-8.895-2.461c-2.719-1.64-4.875-3.96-6.469-6.961
			c-1.594-3-2.391-6.421-2.391-10.266c0-4.008,1.025-8.01,3.076-12.006c2.051-3.996,5.098-7.3,9.141-9.914
			c4.043-2.613,8.889-3.92,14.537-3.92c2.25,0,4.389,0.381,6.416,1.143c2.027,0.762,3.802,1.799,5.326,3.111l-2.918,11.672
			l-2.953-0.492l-0.281-7.699c-0.75-1.242-1.799-2.279-3.146-3.111c-1.348-0.832-3.053-1.248-5.115-1.248
			c-2.86,0-5.532,0.856-8.016,2.566c-2.484,1.711-4.477,4.161-5.977,7.348C282.189,192.894,281.439,196.609,281.439,200.851z"/>
		<path class="txt" d="M336.881,207.777c-0.516,3.422-0.773,5.743-0.773,6.961c0,1.032,0.135,1.758,0.404,2.18
			c0.269,0.422,0.721,0.68,1.354,0.773l2.672,0.422l-0.633,2.426c-2.016,0.75-3.785,1.125-5.309,1.125
			c-1.383,0-2.496-0.352-3.34-1.055s-1.266-1.64-1.266-2.813c0-0.422,0.07-0.879,0.211-1.371h-0.422
			c-0.844,1.547-2.016,2.83-3.516,3.85c-1.5,1.02-3.094,1.529-4.781,1.529c-1.43,0-2.678-0.417-3.744-1.248
			c-1.067-0.832-1.887-2.033-2.461-3.604c-0.575-1.57-0.861-3.41-0.861-5.52c0-4.359,0.919-8.168,2.76-11.426
			c1.84-3.257,4.148-5.748,6.926-7.471s5.525-2.584,8.244-2.584c3.727,0,6.082,0.621,7.066,1.863L336.881,207.777z M330.377,214
			l3.023-19.16c-0.891-0.82-2.285-1.23-4.184-1.23c-1.781,0-3.37,0.809-4.764,2.426c-1.395,1.617-2.473,3.68-3.234,6.188
			c-0.762,2.508-1.143,5.04-1.143,7.594c0,2.579,0.357,4.477,1.072,5.695c0.715,1.219,1.775,1.828,3.182,1.828
			c1.218,0,2.291-0.287,3.217-0.861C328.473,215.904,329.416,215.078,330.377,214z"/>
		<path class="txt" d="M351.084,174.765c1.734,0,2.953,0.34,3.656,1.02c0.703,0.68,1.055,1.723,1.055,3.129c0,0.61-0.083,1.489-0.246,2.637
			l-1.758,9.914l-0.984,4.219h0.422c0.937-1.617,2.262-3.006,3.973-4.166c1.71-1.16,3.352-1.74,4.922-1.74
			c1.898,0,3.492,0.545,4.781,1.635c1.289,1.09,2.244,2.549,2.865,4.377c0.621,1.828,0.932,3.879,0.932,6.152
			c0,3.352-0.786,6.563-2.355,9.633c-1.57,3.071-3.774,5.555-6.609,7.453c-2.836,1.898-6.035,2.848-9.598,2.848
			c-1.43,0-2.918-0.217-4.465-0.65s-2.777-1.072-3.691-1.916l6.012-37.617c0.047-0.375,0.07-0.645,0.07-0.809
			c0-0.867-0.27-1.447-0.809-1.74c-0.54-0.293-1.336-0.439-2.391-0.439l-1.477,0.035l0.316-2.813
			C347.299,175.152,349.092,174.765,351.084,174.765z M364.83,204.085c0-2.602-0.463-4.804-1.389-6.609
			c-0.926-1.805-2.361-2.707-4.307-2.707c-1.336,0-2.467,0.305-3.393,0.914c-0.926,0.61-1.869,1.5-2.83,2.672l-2.953,17.262
			c0.445,0.75,1.154,1.354,2.127,1.811c0.972,0.457,2.009,0.686,3.111,0.686c1.828,0,3.475-0.68,4.939-2.039
			c1.464-1.359,2.613-3.123,3.445-5.291C364.414,208.615,364.83,206.383,364.83,204.085z"/>
		<path class="txt" d="M381.107,221.066h-5.871l3.234-24.504c0.023-0.164,0.035-0.398,0.035-0.703c0-0.914-0.27-1.523-0.809-1.828
			c-0.54-0.304-1.324-0.457-2.355-0.457l-1.477,0.035l0.316-2.813c1.594-0.773,3.387-1.16,5.379-1.16
			c1.688,0,2.93,0.322,3.727,0.967c0.796,0.645,1.195,1.647,1.195,3.006c0,0.469-0.083,1.16-0.246,2.074l-0.809,4.043h0.387
			c0.539-1.64,1.23-3.229,2.074-4.764c0.844-1.535,1.793-2.795,2.848-3.779s2.145-1.477,3.27-1.477c1.055,0,1.881,0.316,2.479,0.949
			s0.896,1.43,0.896,2.391c0,0.797-0.164,1.605-0.492,2.426c-0.329,0.821-0.821,1.559-1.477,2.215
			c-0.469-0.469-0.932-0.785-1.389-0.949c-0.457-0.164-1.002-0.246-1.635-0.246c-1.383,0-2.678,0.698-3.885,2.092
			c-1.208,1.395-2.221,2.936-3.041,4.623L381.107,221.066z"/>
		<path class="txt" d="M417.6,207.777c-0.516,3.422-0.773,5.743-0.773,6.961c0,1.032,0.135,1.758,0.404,2.18s0.721,0.68,1.354,0.773l2.672,0.422
			l-0.633,2.426c-2.016,0.75-3.785,1.125-5.309,1.125c-1.383,0-2.496-0.352-3.34-1.055s-1.266-1.64-1.266-2.813
			c0-0.422,0.07-0.879,0.211-1.371h-0.422c-0.844,1.547-2.016,2.83-3.516,3.85c-1.5,1.02-3.094,1.529-4.781,1.529
			c-1.43,0-2.678-0.417-3.744-1.248c-1.067-0.832-1.887-2.033-2.461-3.604c-0.575-1.57-0.861-3.41-0.861-5.52
			c0-4.359,0.919-8.168,2.76-11.426c1.84-3.257,4.148-5.748,6.926-7.471s5.525-2.584,8.244-2.584c3.727,0,6.082,0.621,7.066,1.863
			L417.6,207.777z M411.096,214l3.023-19.16c-0.891-0.82-2.285-1.23-4.184-1.23c-1.781,0-3.37,0.809-4.764,2.426
			c-1.395,1.617-2.473,3.68-3.234,6.188c-0.762,2.508-1.143,5.04-1.143,7.594c0,2.579,0.357,4.477,1.072,5.695
			c0.715,1.219,1.775,1.828,3.182,1.828c1.218,0,2.291-0.287,3.217-0.861C409.191,215.904,410.135,215.078,411.096,214z"/>
		<path class="txt" d="M425.369,178.738l0.316-2.813c1.594-0.773,3.387-1.16,5.379-1.16c1.734,0,2.947,0.34,3.639,1.02
			c0.691,0.68,1.037,1.735,1.037,3.164c0,0.773-0.07,1.641-0.211,2.602l-4.148,26.227c-0.539,3.422-0.809,5.836-0.809,7.242
			c0,0.844,0.193,1.465,0.58,1.863c0.387,0.399,0.879,0.639,1.477,0.721c0.598,0.083,1.4,0.111,2.408,0.088l-0.281,2.848
			c-0.586,0.305-1.33,0.568-2.232,0.791c-0.902,0.223-1.811,0.334-2.725,0.334c-1.828,0-3.135-0.375-3.92-1.125
			s-1.178-1.934-1.178-3.551c0-0.633,0.082-1.547,0.246-2.742l5.027-32.555c0.047-0.375,0.07-0.645,0.07-0.809
			c0-0.867-0.27-1.447-0.809-1.74c-0.539-0.293-1.336-0.439-2.391-0.439L425.369,178.738z"/>
		<path class="txt" d="M342.357,263.239c5.367,0,9.726,0.797,13.078,2.391c3.352,1.594,5.76,3.709,7.225,6.346
			c1.464,2.637,2.197,5.584,2.197,8.842c0,4.548-1.313,8.865-3.938,12.955c-2.625,4.091-6.323,7.396-11.092,9.914
			c-4.77,2.52-10.213,3.779-16.33,3.779h-16.91l0.879-2.602l6.398-1.934l5.344-34.242l-5.871-1.055l0.738-2.672
			C331.529,263.814,337.623,263.239,342.357,263.239z M340.459,266.825c-1.5,0-2.918,0.083-4.254,0.246l-5.801,36.738h5.168
			c4.266,0,8.016-0.891,11.25-2.672c3.234-1.78,5.73-4.195,7.488-7.242c1.758-3.046,2.637-6.421,2.637-10.125
			c0-3.281-0.604-6.193-1.811-8.736c-1.208-2.543-3.047-4.547-5.52-6.012C347.144,267.558,344.092,266.825,340.459,266.825z"/>
		<path class="txt" d="M376.037,308.521c-5.813,0-8.719-3.738-8.719-11.215c0-3.727,0.686-7.212,2.057-10.459
			c1.371-3.246,3.199-5.836,5.484-7.77s4.716-2.9,7.295-2.9c1.945,0,3.498,0.627,4.658,1.881c1.16,1.254,1.74,2.948,1.74,5.08
			c0,4.242-1.489,7.185-4.465,8.824c-2.977,1.641-6.633,2.403-10.969,2.285c-0.047,0.938-0.07,1.605-0.07,2.004
			c0,2.509,0.416,4.407,1.248,5.695c0.832,1.289,2.162,1.934,3.99,1.934c1.734,0,3.275-0.281,4.623-0.844
			c1.348-0.563,2.385-1.16,3.111-1.793l0.914,1.582c-0.563,0.867-1.412,1.74-2.549,2.619c-1.137,0.879-2.438,1.612-3.902,2.197
			C379.02,308.227,377.537,308.521,376.037,308.521z M380.045,279.411c-1.008,0-1.981,0.369-2.918,1.107
			c-0.938,0.738-1.752,2.021-2.443,3.85c-0.691,1.828-1.107,4.267-1.248,7.313c1.969-0.022,3.662-0.229,5.08-0.615
			c1.418-0.387,2.566-1.13,3.445-2.232c0.879-1.102,1.318-2.659,1.318-4.676c0-1.313-0.293-2.431-0.879-3.357
			C381.814,279.874,381.029,279.411,380.045,279.411z"/>
		<path class="txt" d="M405.428,275.755c2.297,0,4.16,0.439,5.59,1.318s2.145,2.186,2.145,3.92c0,1.219-0.398,2.192-1.195,2.918
			c-0.797,0.727-1.91,1.148-3.34,1.266c-0.329-1.64-0.698-2.94-1.107-3.902c-0.41-0.961-0.92-1.675-1.529-2.145
			c-0.61-0.469-1.395-0.703-2.355-0.703c-1.219,0-2.245,0.387-3.076,1.16c-0.832,0.773-1.248,1.898-1.248,3.375
			c0,0.914,0.251,1.771,0.756,2.566c0.504,0.797,1.125,1.518,1.863,2.162c0.738,0.646,1.763,1.459,3.076,2.443
			c1.5,1.103,2.719,2.074,3.656,2.918s1.729,1.828,2.373,2.953s0.967,2.368,0.967,3.727c0,1.617-0.568,3.117-1.705,4.5
			c-1.137,1.384-2.584,2.474-4.342,3.27s-3.504,1.195-5.238,1.195c-1.946,0-3.627-0.294-5.045-0.879
			c-1.418-0.585-2.496-1.354-3.234-2.303s-1.107-1.963-1.107-3.041c0-1.055,0.404-1.969,1.213-2.742s1.928-1.218,3.357-1.336
			c0.352,1.876,0.791,3.328,1.318,4.359c0.527,1.032,1.201,1.758,2.021,2.18c0.82,0.422,1.875,0.633,3.164,0.633
			c1.266,0,2.285-0.398,3.059-1.195c0.773-0.796,1.16-1.745,1.16-2.848c0-0.844-0.234-1.629-0.703-2.355
			c-0.469-0.726-1.049-1.376-1.74-1.951c-0.691-0.574-1.647-1.295-2.865-2.162c-1.524-1.077-2.754-2.033-3.691-2.865
			c-0.938-0.831-1.74-1.833-2.408-3.006c-0.668-1.172-1.002-2.508-1.002-4.008c0-1.569,0.504-3.081,1.512-4.535
			c1.007-1.453,2.373-2.631,4.096-3.533C401.543,276.207,403.412,275.755,405.428,275.755z"/>
		<path class="txt" d="M423.885,308.521c-5.813,0-8.719-3.738-8.719-11.215c0-3.727,0.686-7.212,2.057-10.459
			c1.371-3.246,3.199-5.836,5.484-7.77s4.717-2.9,7.295-2.9c1.945,0,3.498,0.627,4.658,1.881c1.16,1.254,1.74,2.948,1.74,5.08
			c0,4.242-1.488,7.185-4.465,8.824c-2.977,1.641-6.633,2.403-10.969,2.285c-0.047,0.938-0.07,1.605-0.07,2.004
			c0,2.509,0.416,4.407,1.248,5.695c0.832,1.289,2.162,1.934,3.99,1.934c1.734,0,3.275-0.281,4.623-0.844s2.385-1.16,3.111-1.793
			l0.914,1.582c-0.563,0.867-1.412,1.74-2.549,2.619s-2.438,1.612-3.902,2.197S425.385,308.521,423.885,308.521z M427.893,279.411
			c-1.008,0-1.98,0.369-2.918,1.107s-1.752,2.021-2.443,3.85s-1.107,4.267-1.248,7.313c1.969-0.022,3.662-0.229,5.08-0.615
			s2.566-1.13,3.445-2.232c0.879-1.102,1.318-2.659,1.318-4.676c0-1.313-0.293-2.431-0.879-3.357
			C429.662,279.874,428.877,279.411,427.893,279.411z"/>
		<path class="txt" d="M446.068,276.036c1.664,0,2.906,0.316,3.727,0.949s1.23,1.617,1.23,2.953c0,0.563-0.094,1.278-0.281,2.145h0.422
			c1.195-1.594,2.678-2.994,4.447-4.201c1.77-1.207,3.615-1.811,5.537-1.811c3.938,0,5.906,2.145,5.906,6.434
			c0,1.008-0.105,2.145-0.316,3.41l-1.23,8.262c-0.539,3.375-0.809,5.754-0.809,7.137c0,0.844,0.193,1.465,0.58,1.863
			c0.387,0.399,0.879,0.639,1.477,0.721c0.598,0.083,1.4,0.111,2.408,0.088l-0.281,2.848c-0.586,0.305-1.33,0.568-2.232,0.791
			s-1.811,0.334-2.725,0.334c-1.828,0-3.141-0.369-3.938-1.107s-1.195-1.903-1.195-3.498c0-0.75,0.094-1.688,0.281-2.813
			l1.793-11.531c0.188-1.242,0.281-2.297,0.281-3.164c0-1.499-0.293-2.637-0.879-3.41s-1.547-1.16-2.883-1.16
			c-1.453,0-2.684,0.27-3.691,0.809c-1.008,0.54-1.969,1.243-2.883,2.109l-3.34,23.273h-5.73l3.234-24.504
			c0.047-0.374,0.07-0.62,0.07-0.738c0-0.891-0.275-1.488-0.826-1.793c-0.551-0.304-1.342-0.457-2.373-0.457l-1.477,0.035
			l0.316-2.813C442.283,276.423,444.076,276.036,446.068,276.036z"/>
		<path class="txt" d="M493.6,276.177c1.453,0,2.502,0.357,3.146,1.072c0.645,0.715,0.967,1.764,0.967,3.146c0,2.087-1.318,5.801-3.955,11.145
			s-5.596,10.771-8.877,16.277l-3.656,0.633l-4.43-25.207c-0.164-0.844-0.387-1.481-0.668-1.916
			c-0.281-0.434-0.627-0.721-1.037-0.861s-0.943-0.211-1.6-0.211l-1.406,0.035l0.316-2.813c1.5-0.773,3.176-1.16,5.027-1.16
			c1.313,0,2.303,0.287,2.971,0.861c0.668,0.575,1.137,1.354,1.406,2.338s0.545,2.461,0.826,4.43l2.496,18.07
			c1.711-3,3.059-5.502,4.043-7.506s1.775-4.083,2.373-6.24c0.598-2.156,0.896-4.406,0.896-6.75c0-0.515-0.188-0.902-0.563-1.16
			c-0.375-0.258-0.867-0.387-1.477-0.387c-0.539,0-1.02,0.059-1.441,0.176l0.316-2.813
			C490.564,276.563,492.006,276.177,493.6,276.177z"/>
		<path class="txt" d="M525.135,289.36c0,3.164-0.674,6.211-2.021,9.141c-1.348,2.931-3.223,5.309-5.625,7.137s-5.104,2.742-8.104,2.742
			c-2.156,0-4.002-0.575-5.537-1.723s-2.689-2.712-3.463-4.693c-0.773-1.98-1.16-4.213-1.16-6.697c0-3.305,0.691-6.428,2.074-9.369
			c1.383-2.94,3.293-5.314,5.73-7.119c2.438-1.805,5.156-2.707,8.156-2.707c2.18,0,4.02,0.627,5.52,1.881
			c1.5,1.254,2.613,2.889,3.34,4.904C524.771,284.873,525.135,287.04,525.135,289.36z M511.6,304.161
			c2.461,0,4.359-1.178,5.695-3.533s2.004-5.607,2.004-9.756c0-3.046-0.563-5.584-1.688-7.611c-1.125-2.026-2.871-3.041-5.238-3.041
			c-1.453,0-2.73,0.522-3.832,1.564c-1.102,1.043-1.963,2.59-2.584,4.641c-0.621,2.052-0.932,4.518-0.932,7.4
			c0,2.203,0.287,4.084,0.861,5.643c0.574,1.56,1.359,2.73,2.355,3.516C509.238,303.77,510.357,304.161,511.6,304.161z"/>
		<path class="txt" d="M529.846,265.138l0.316-2.813c1.594-0.773,3.387-1.16,5.379-1.16c1.734,0,2.947,0.34,3.639,1.02
			c0.691,0.68,1.037,1.735,1.037,3.164c0,0.773-0.07,1.641-0.211,2.602l-4.148,26.227c-0.539,3.423-0.809,5.836-0.809,7.242
			c0,0.844,0.193,1.465,0.58,1.863c0.387,0.399,0.879,0.639,1.477,0.721c0.598,0.083,1.4,0.111,2.408,0.088l-0.281,2.848
			c-0.586,0.305-1.33,0.567-2.232,0.791c-0.902,0.223-1.811,0.334-2.725,0.334c-1.828,0-3.135-0.375-3.92-1.125
			s-1.178-1.934-1.178-3.551c0-0.633,0.082-1.547,0.246-2.742l5.027-32.555c0.047-0.375,0.07-0.645,0.07-0.809
			c0-0.867-0.27-1.447-0.809-1.74c-0.539-0.293-1.336-0.439-2.391-0.439L529.846,265.138z"/>
		<path class="txt" d="M564.58,276.177c1.453,0,2.502,0.357,3.146,1.072c0.645,0.715,0.967,1.764,0.967,3.146c0,2.087-1.318,5.801-3.955,11.145
			s-5.596,10.771-8.877,16.277l-3.656,0.633l-4.43-25.207c-0.164-0.844-0.387-1.481-0.668-1.916
			c-0.281-0.434-0.627-0.721-1.037-0.861s-0.943-0.211-1.6-0.211l-1.406,0.035l0.316-2.813c1.5-0.773,3.176-1.16,5.027-1.16
			c1.313,0,2.303,0.287,2.971,0.861c0.668,0.575,1.137,1.354,1.406,2.338s0.545,2.461,0.826,4.43l2.496,18.07
			c1.711-3,3.059-5.502,4.043-7.506s1.775-4.083,2.373-6.24c0.598-2.156,0.896-4.406,0.896-6.75c0-0.515-0.188-0.902-0.563-1.16
			c-0.375-0.258-0.867-0.387-1.477-0.387c-0.539,0-1.02,0.059-1.441,0.176l0.316-2.813
			C561.545,276.563,562.986,276.177,564.58,276.177z"/>
		<path class="txt" d="M571.611,280.29l0.316-2.813c1.594-0.773,3.387-1.16,5.379-1.16c1.734,0,2.947,0.34,3.639,1.02
			c0.691,0.68,1.037,1.735,1.037,3.164c0,0.773-0.07,1.641-0.211,2.602l-1.617,11.074c-0.281,1.992-0.486,3.521-0.615,4.588
			c-0.129,1.067-0.193,1.951-0.193,2.654c0,0.844,0.193,1.465,0.58,1.863c0.387,0.399,0.879,0.639,1.477,0.721
			c0.598,0.083,1.4,0.111,2.408,0.088l-0.281,2.848c-0.586,0.305-1.33,0.567-2.232,0.791c-0.902,0.223-1.811,0.334-2.725,0.334
			c-1.828,0-3.129-0.369-3.902-1.107s-1.16-1.938-1.16-3.604c0-0.796,0.07-1.699,0.211-2.707l2.496-17.402
			c0.047-0.374,0.07-0.645,0.07-0.809c0-0.866-0.27-1.447-0.809-1.74c-0.539-0.293-1.336-0.439-2.391-0.439L571.611,280.29z
			 M577.271,266.087c0-0.703,0.176-1.365,0.527-1.986c0.352-0.621,0.85-1.119,1.494-1.494c0.645-0.375,1.365-0.563,2.162-0.563
			c1.055,0,1.951,0.381,2.689,1.143c0.738,0.762,1.107,1.705,1.107,2.83c0,1.102-0.404,2.021-1.213,2.76s-1.799,1.107-2.971,1.107
			c-1.031,0-1.922-0.369-2.672-1.107S577.271,267.142,577.271,266.087z"/>
		<path class="txt" d="M630.656,303.177c0.387,0.399,0.879,0.639,1.477,0.721c0.598,0.083,1.4,0.111,2.408,0.088l-0.281,2.848
			c-0.586,0.305-1.33,0.568-2.232,0.791s-1.811,0.334-2.725,0.334c-1.852,0-3.158-0.382-3.92-1.143s-1.143-1.974-1.143-3.639
			c0-0.773,0.07-1.652,0.211-2.637l1.477-11.531c0.164-1.358,0.246-2.413,0.246-3.164c0-1.499-0.264-2.637-0.791-3.41
			s-1.4-1.16-2.619-1.16c-1.594,0-2.971,0.329-4.131,0.984c-1.16,0.656-2.232,1.512-3.217,2.566l-0.105,1.09l-2.461,21.551h-5.73
			l2.32-18.457c0.141-1.125,0.211-2.145,0.211-3.059c0-1.569-0.275-2.742-0.826-3.516s-1.506-1.16-2.865-1.16
			c-1.453,0-2.684,0.27-3.691,0.809c-1.008,0.54-1.969,1.243-2.883,2.109l-3.34,23.273h-5.73l3.234-24.504
			c0.047-0.374,0.07-0.633,0.07-0.773c0-0.891-0.27-1.482-0.809-1.775c-0.539-0.293-1.324-0.439-2.355-0.439l-1.512,0.035
			l0.316-2.813c1.594-0.773,3.387-1.16,5.379-1.16c1.664,0,2.906,0.316,3.727,0.949s1.23,1.617,1.23,2.953
			c0,0.563-0.094,1.278-0.281,2.145h0.422c1.195-1.594,2.678-2.994,4.447-4.201c1.77-1.207,3.615-1.811,5.537-1.811
			c1.992,0,3.451,0.551,4.377,1.652c0.926,1.102,1.389,2.836,1.389,5.203c1.406-1.851,3.07-3.457,4.992-4.816
			c1.922-1.359,3.938-2.039,6.047-2.039c1.875,0,3.252,0.551,4.131,1.652c0.879,1.102,1.318,2.836,1.318,5.203
			c0,1.078-0.059,2.074-0.176,2.988l-0.914,8.262l-0.387,3.023c-0.281,2.017-0.422,3.388-0.422,4.113
			C630.076,302.157,630.27,302.778,630.656,303.177z"/>
		<path class="txt" d="M645.51,308.521c-5.813,0-8.719-3.738-8.719-11.215c0-3.727,0.686-7.212,2.057-10.459c1.371-3.246,3.199-5.836,5.484-7.77
			s4.717-2.9,7.295-2.9c1.945,0,3.498,0.627,4.658,1.881c1.16,1.254,1.74,2.948,1.74,5.08c0,4.242-1.488,7.185-4.465,8.824
			c-2.977,1.641-6.633,2.403-10.969,2.285c-0.047,0.938-0.07,1.605-0.07,2.004c0,2.509,0.416,4.407,1.248,5.695
			c0.832,1.289,2.162,1.934,3.99,1.934c1.734,0,3.275-0.281,4.623-0.844s2.385-1.16,3.111-1.793l0.914,1.582
			c-0.563,0.867-1.412,1.74-2.549,2.619s-2.438,1.612-3.902,2.197S647.01,308.521,645.51,308.521z M649.518,279.411
			c-1.008,0-1.98,0.369-2.918,1.107s-1.752,2.021-2.443,3.85s-1.107,4.267-1.248,7.313c1.969-0.022,3.662-0.229,5.08-0.615
			s2.566-1.13,3.445-2.232c0.879-1.102,1.318-2.659,1.318-4.676c0-1.313-0.293-2.431-0.879-3.357
			C651.287,279.874,650.502,279.411,649.518,279.411z"/>
		<path class="txt" d="M667.693,276.036c1.664,0,2.906,0.316,3.727,0.949s1.23,1.617,1.23,2.953c0,0.563-0.094,1.278-0.281,2.145h0.422
			c1.195-1.594,2.678-2.994,4.447-4.201c1.77-1.207,3.615-1.811,5.537-1.811c3.938,0,5.906,2.145,5.906,6.434
			c0,1.008-0.105,2.145-0.316,3.41l-1.23,8.262c-0.539,3.375-0.809,5.754-0.809,7.137c0,0.844,0.193,1.465,0.58,1.863
			c0.387,0.399,0.879,0.639,1.477,0.721c0.598,0.083,1.4,0.111,2.408,0.088l-0.281,2.848c-0.586,0.305-1.33,0.568-2.232,0.791
			s-1.811,0.334-2.725,0.334c-1.828,0-3.141-0.369-3.938-1.107s-1.195-1.903-1.195-3.498c0-0.75,0.094-1.688,0.281-2.813
			l1.793-11.531c0.188-1.242,0.281-2.297,0.281-3.164c0-1.499-0.293-2.637-0.879-3.41s-1.547-1.16-2.883-1.16
			c-1.453,0-2.684,0.27-3.691,0.809c-1.008,0.54-1.969,1.243-2.883,2.109l-3.34,23.273h-5.73l3.234-24.504
			c0.047-0.374,0.07-0.62,0.07-0.738c0-0.891-0.275-1.488-0.826-1.793c-0.551-0.304-1.342-0.457-2.373-0.457l-1.477,0.035
			l0.316-2.813C663.908,276.423,665.701,276.036,667.693,276.036z"/>
		<path class="txt" d="M701.021,295.267c-0.258,1.617-0.387,2.896-0.387,3.832c0,1.524,0.322,2.584,0.967,3.182s1.74,0.896,3.287,0.896
			c1.289,0,2.52-0.387,3.691-1.16l0.457,1.863c-1.008,1.313-2.186,2.361-3.533,3.146s-2.818,1.178-4.412,1.178
			c-2.109,0-3.645-0.575-4.605-1.723s-1.441-2.883-1.441-5.203c0-1.007,0.117-2.332,0.352-3.973l2.602-16.77h-3.516l0.352-3.375
			h3.691l1.195-7.664h5.414l-1.23,7.664h7.734l-0.668,3.375h-7.594L701.021,295.267z"/>
		<path class="txt" d="M739.131,289.36c0,3.164-0.674,6.211-2.021,9.141c-1.348,2.931-3.223,5.309-5.625,7.137s-5.104,2.742-8.104,2.742
			c-2.156,0-4.002-0.575-5.537-1.723s-2.689-2.712-3.463-4.693c-0.773-1.98-1.16-4.213-1.16-6.697c0-3.305,0.691-6.428,2.074-9.369
			c1.383-2.94,3.293-5.314,5.73-7.119c2.438-1.805,5.156-2.707,8.156-2.707c2.18,0,4.02,0.627,5.52,1.881
			c1.5,1.254,2.613,2.889,3.34,4.904C738.768,284.873,739.131,287.04,739.131,289.36z M725.596,304.161
			c2.461,0,4.359-1.178,5.695-3.533s2.004-5.607,2.004-9.756c0-3.046-0.563-5.584-1.688-7.611c-1.125-2.026-2.871-3.041-5.238-3.041
			c-1.453,0-2.73,0.522-3.832,1.564c-1.102,1.043-1.963,2.59-2.584,4.641c-0.621,2.052-0.932,4.518-0.932,7.4
			c0,2.203,0.287,4.084,0.861,5.643c0.574,1.56,1.359,2.73,2.355,3.516C723.234,303.77,724.354,304.161,725.596,304.161z"/>
		<path class="txt" d="M792.322,308.345l-5.203-34.313l-13.887,33.258l-5.801,1.055l-6.574-40.465l-4.641-1.477l0.668-2.672h18.07l-0.879,2.672
			l-6.082,1.336l4.465,30.867l13.852-33.117l6.363-0.879l4.992,33.398l12.059-30.129l-6.152-1.477l0.809-2.672h15.785l-0.809,2.672
			l-4.465,1.336l-16.98,39.551L792.322,308.345z"/>
		<path class="txt" d="M831.205,308.521c-5.813,0-8.719-3.738-8.719-11.215c0-3.727,0.686-7.212,2.057-10.459
			c1.371-3.246,3.199-5.836,5.484-7.77s4.717-2.9,7.295-2.9c1.945,0,3.498,0.627,4.658,1.881c1.16,1.254,1.74,2.948,1.74,5.08
			c0,4.242-1.488,7.185-4.465,8.824c-2.977,1.641-6.633,2.403-10.969,2.285c-0.047,0.938-0.07,1.605-0.07,2.004
			c0,2.509,0.416,4.407,1.248,5.695c0.832,1.289,2.162,1.934,3.99,1.934c1.734,0,3.275-0.281,4.623-0.844s2.385-1.16,3.111-1.793
			l0.914,1.582c-0.563,0.867-1.412,1.74-2.549,2.619s-2.438,1.612-3.902,2.197S832.705,308.521,831.205,308.521z M835.213,279.411
			c-1.008,0-1.98,0.369-2.918,1.107s-1.752,2.021-2.443,3.85s-1.107,4.267-1.248,7.313c1.969-0.022,3.662-0.229,5.08-0.615
			s2.566-1.13,3.445-2.232c0.879-1.102,1.318-2.659,1.318-4.676c0-1.313-0.293-2.431-0.879-3.357
			C836.982,279.874,836.197,279.411,835.213,279.411z"/>
		<path class="txt" d="M854.549,261.165c1.734,0,2.953,0.34,3.656,1.02c0.703,0.68,1.055,1.723,1.055,3.129c0,0.61-0.082,1.489-0.246,2.637
			l-1.758,9.914l-0.984,4.219h0.422c0.938-1.617,2.262-3.006,3.973-4.166s3.352-1.74,4.922-1.74c1.898,0,3.492,0.545,4.781,1.635
			s2.244,2.549,2.865,4.377s0.932,3.88,0.932,6.152c0,3.353-0.785,6.563-2.355,9.633c-1.57,3.071-3.773,5.555-6.609,7.453
			s-6.035,2.848-9.598,2.848c-1.43,0-2.918-0.217-4.465-0.65s-2.777-1.072-3.691-1.916l6.012-37.617
			c0.047-0.375,0.07-0.645,0.07-0.809c0-0.867-0.27-1.447-0.809-1.74c-0.539-0.293-1.336-0.439-2.391-0.439l-1.477,0.035
			l0.316-2.813C850.764,261.552,852.557,261.165,854.549,261.165z M868.295,290.485c0-2.602-0.463-4.804-1.389-6.609
			c-0.926-1.805-2.361-2.707-4.307-2.707c-1.336,0-2.467,0.305-3.393,0.914c-0.926,0.61-1.869,1.5-2.83,2.672l-2.953,17.262
			c0.445,0.751,1.154,1.354,2.127,1.811s2.01,0.686,3.111,0.686c1.828,0,3.475-0.68,4.939-2.039
			c1.465-1.358,2.613-3.123,3.445-5.291C867.879,295.016,868.295,292.783,868.295,290.485z"/>
	</g>
</g>
</svg>
